HIERARCHY
ROOT Hips
{
  OFFSET -4.35178 90.3298 111.633
  CHANNELS 6 Xposition Yposition Zposition Zrotation Xrotation Yrotation
  JOINT LeftUpLeg
  {
    OFFSET 0.103456 1.85784 10.5485
    CHANNELS 6 Xposition Yposition Zposition Zrotation Xrotation Yrotation
    JOINT LeftLeg
    {
      OFFSET 43.5 -4.2e-05 0
      CHANNELS 6 Xposition Yposition Zposition Zrotation Xrotation Yrotation
      JOINT LeftFoot
      {
        OFFSET 42.3722 1.9e-05 0
        CHANNELS 6 Xposition Yposition Zposition Zrotation Xrotation Yrotation
        JOINT LeftToe
        {
          OFFSET 17.3 0 0
          CHANNELS 6 Xposition Yposition Zposition Zrotation Xrotation Yrotation
          End Site
          {
            OFFSET 0 0 0
          }
        }
      }
    }
  }
  JOINT RightUpLeg
  {
    OFFSET 0.103456 1.85782 -10.5485
    CHANNELS 6 Xposition Yposition Zposition Zrotation Xrotation Yrotation
    JOINT RightLeg
    {
      OFFSET 43.5 -2.7e-05 0
      CHANNELS 6 Xposition Yposition Zposition Zrotation Xrotation Yrotation
      JOINT RightFoot
      {
        OFFSET 42.3723 0 0
        CHANNELS 6 Xposition Yposition Zposition Zrotation Xrotation Yrotation
        JOINT RightToe
        {
          OFFSET 17.3 0 1.7e-05
          CHANNELS 6 Xposition Yposition Zposition Zrotation Xrotation Yrotation
          End Site
          {
            OFFSET 0 0 0
          }
        }
      }
    }
  }
  JOINT Spine
  {
    OFFSET 6.90197 -2.60373 0
    CHANNELS 6 Xposition Yposition Zposition Zrotation Xrotation Yrotation
    JOINT Spine1
    {
      OFFSET 12.5881 0 0
      CHANNELS 6 Xposition Yposition Zposition Zrotation Xrotation Yrotation
      JOINT Spine2
      {
        OFFSET 12.3432 -1.8e-05 0
        CHANNELS 6 Xposition Yposition Zposition Zrotation Xrotation Yrotation
        JOINT Neck
        {
          OFFSET 25.8329 2.3e-05 0
          CHANNELS 6 Xposition Yposition Zposition Zrotation Xrotation Yrotation
          JOINT Head
          {
            OFFSET 11.7666 0 0
            CHANNELS 6 Xposition Yposition Zposition Zrotation Xrotation Yrotation
            End Site
            {
              OFFSET 0 0 0
            }
          }
        }
        JOINT LeftShoulder
        {
          OFFSET 19.7459 -1.48035 6.0001
          CHANNELS 6 Xposition Yposition Zposition Zrotation Xrotation Yrotation
          JOINT LeftArm
          {
            OFFSET 11.2841 1.8e-05 -2e-05
            CHANNELS 6 Xposition Yposition Zposition Zrotation Xrotation Yrotation
            JOINT LeftForeArm
            {
              OFFSET 33 -1.3e-05 1.9e-05
              CHANNELS 6 Xposition Yposition Zposition Zrotation Xrotation Yrotation
              JOINT LeftHand
              {
                OFFSET 25.2 3.2e-05 1.1e-05
                CHANNELS 6 Xposition Yposition Zposition Zrotation Xrotation Yrotation
                End Site
                {
                  OFFSET 0 0 0
                }
              }
            }
          }
        }
        JOINT RightShoulder
        {
          OFFSET 19.7461 -1.48036 -6.00008
          CHANNELS 6 Xposition Yposition Zposition Zrotation Xrotation Yrotation
          JOINT RightArm
          {
            OFFSET 11.2841 0 0
            CHANNELS 6 Xposition Yposition Zposition Zrotation Xrotation Yrotation
            JOINT RightForeArm
            {
              OFFSET 33.0001 1.6e-05 0
              CHANNELS 6 Xposition Yposition Zposition Zrotation Xrotation Yrotation
              JOINT RightHand
              {
                OFFSET 25.1998 0.000123 0.000432
                CHANNELS 6 Xposition Yposition Zposition Zrotation Xrotation Yrotation
                End Site
                {
                  OFFSET 0 0 0
                }
              }
            }
          }
        }
      }
    }
  }
}
MOTION
Frames:	9
Frame Time:	0.0333333
50.9924 68.9485 4.38171 -4.02933 -87.1253 -87.2031 0.103456 1.85784 10.5485 -24.1029 19.8719 -171.189 43.5 -4.2e-05 1e-05 -104.929 -11.9724 -4.68165 42.3722 1.9e-05 0 83.1237 31.2421 -7.4436 17.3 0 3e-06 21.4546 -1e-06 0.003093 0.103456 1.85782 -10.5485 -57.6206 -9.86865 -175.581 43.5 -2.7e-05 4e-06 -71.2781 17.7342 -21.0409 42.3723 0 1e-05 81.589 0.318851 0.737557 17.3 -6e-06 1.7e-05 21.4546 -1.9e-05 -0.003116 6.90197 -2.60373 -3e-06 23.7744 -2.18857 -0.173578 12.5881 1e-05 8e-06 37.6169 -3.86919 0.564548 12.3432 -1.8e-05 -5e-06 37.3527 -3.27205 0.726889 25.8329 2.3e-05 7e-06 1.13925 -1.25173 -7.94819 11.7666 -8e-06 -6e-06 -63.2432 -6.14356 6.15168 19.7459 -1.48035 6.0001 -162.809 18.5253 -113.314 11.2841 1.8e-05 -2e-05 78.8844 -41.193 124.705 33 -1.3e-05 1.9e-05 -120.69 -17.2163 -6.61648 25.2 3.2e-05 1.1e-05 -24.9615 39.744 -9.20111 19.7461 -1.48036 -6.00008 -163.853 -16.0505 101.842 11.2841 0 -1e-06 -16.1568 59.9693 -31.7148 33.0001 1.6e-05 -1e-06 -102.027 -19.556 22.4037 25.1998 0.000123 0.000432 -29.1958 -33.5783 24.7336 
49.5995 69.2218 2.11145 -11.5929 -87.1292 -94.6458 0.103456 1.85784 10.5485 -26.6204 18.633 -169.192 43.5 -4.2e-05 1e-05 -107.522 -10.7784 -4.20174 42.3722 1.9e-05 7.10543e-15 84.7916 30.9507 -9.30876 17.3 -7.10543e-15 3e-06 21.4546 -1e-06 0.003093 0.103456 1.85782 -10.5485 -56.8584 -8.57355 -176.161 43.5 -2.7e-05 4e-06 -73.0793 17.9081 -20.6763 42.3723 7.10543e-15 1e-05 83.0717 1.67752 0.447799 17.3 -6e-06 1.7e-05 21.4546 -1.9e-05 -0.003116 6.90197 -2.60373 -3e-06 23.6091 -2.19195 -0.0957515 12.5881 1e-05 8e-06 37.2883 -3.84843 0.711885 12.3432 -1.8e-05 -5e-06 37.0232 -3.24671 0.874841 25.8329 2.3e-05 7e-06 1.32695 -1.32455 -7.96709 11.7666 -8e-06 -6e-06 -63.2703 -6.09576 6.13779 19.7459 -1.48035 6.0001 -162.635 18.6631 -112.84 11.2841 1.8e-05 -2e-05 77.987 -41.3981 123.529 33 -1.3e-05 1.9e-05 -120.394 -16.5809 -6.66509 25.2 3.2e-05 1.1e-05 -25.3307 40.2939 -9.29761 19.7461 -1.48036 -6.00008 -163.905 -16.5459 101.99 11.2841 -1.42109e-14 -1e-06 -16.8774 59.3448 -30.9639 33.0001 1.6e-05 -1e-06 -100.894 -19.4624 22.5409 25.1998 0.000123 0.000432 -28.9508 -32.5908 24.1415 
48.2312 69.5807 0.0866838 -11.6986 -87.5062 -94.6127 0.103456 1.85784 10.5485 -29.8752 17.208 -166.981 43.5 -4.2e-05 1e-05 -107.925 -8.35955 -3.78737 42.3722 1.9e-05 3.55271e-15 84.9525 23.7959 -5.29311 17.3 -1.77636e-15 3e-06 21.4546 -1e-06 0.003093 0.103456 1.85782 -10.5485 -56.3326 -7.16054 -176.997 43.5 -2.7e-05 4e-06 -74.5267 17.8546 -20.1484 42.3723 0 1e-05 84.2387 3.13119 -0.0641475 17.3 -6e-06 1.7e-05 21.4546 -1.9e-05 -0.003116 6.90197 -2.60373 -3e-06 23.4853 -2.21958 -0.0202001 12.5881 1e-05 8e-06 37.0436 -3.87453 0.866183 12.3432 -1.8e-05 -5e-06 36.7783 -3.26656 1.03209 25.8329 2.3e-05 7e-06 1.32178 -1.34035 -7.95418 11.7666 -8e-06 -6e-06 -63.4642 -6.11358 6.16479 19.7459 -1.48035 6.0001 -162.457 18.6359 -112.557 11.2841 1.8e-05 -2e-05 77.1278 -41.4251 122.752 33 -1.3e-05 1.9e-05 -120.236 -16.4439 -6.88885 25.2 3.2e-05 1.1e-05 -25.4125 40.7448 -9.44484 19.7461 -1.48036 -6.00008 -163.895 -16.7891 102.151 11.2841 0 -1e-06 -17.3396 58.9725 -30.3634 33.0001 1.6e-05 -1e-06 -100.067 -19.9895 22.5977 25.1998 0.000123 0.000432 -29.1754 -31.5881 23.3843 
47.1474 69.7844 -1.91413 -12.9955 -88.0621 -95.9914 0.103456 1.85784 10.5485 -33.2626 14.7247 -163.259 43.5 -4.2e-05 1e-05 -105.567 -3.13537 -4.50835 42.3722 1.9e-05 -3.55271e-15 83.3845 15.8771 1.48079 17.3 0 3e-06 21.4546 -1e-06 0.003093 0.103456 1.85782 -10.5485 -55.8951 -6.14637 -177.235 43.5 -2.7e-05 4e-06 -75.7564 18.237 -20.0553 42.3723 0 1e-05 85.3516 4.54806 -0.44887 17.3 -6e-06 1.7e-05 21.4546 -1.9e-05 -0.003116 6.90197 -2.60373 -3e-06 23.3253 -2.14768 -0.0531147 12.5881 1e-05 8e-06 36.7185 -3.75456 0.767855 12.3432 -1.8e-05 -5e-06 36.4518 -3.15736 0.928625 25.8329 2.3e-05 7e-06 1.30551 -1.36703 -7.87266 11.7666 -8e-06 -6e-06 -63.6844 -6.13009 6.35124 19.7459 -1.48035 6.0001 -162.569 18.7158 -112.135 11.2841 1.8e-05 -2e-05 75.9486 -41.1535 121.577 33 -1.3e-05 1.9e-05 -120.099 -16.126 -6.96975 25.2 3.2e-05 1.1e-05 -25.5452 40.7953 -9.2879 19.7461 -1.48036 -6.00008 -163.826 -16.8854 101.97 11.2841 1.42109e-14 -1e-06 -17.2998 58.3767 -30.6813 33.0001 1.6e-05 -1e-06 -99.8032 -20.2185 22.6316 25.1998 0.000123 0.000432 -30.0248 -31.6707 23.2471 
45.8455 70.1644 -3.54214 20.7782 -88.7139 -62.1421 0.103456 1.85784 10.5485 -37.5628 12.8046 -160.453 43.5 -4.2e-05 1e-05 -101.701 -0.607099 -4.10361 42.3722 1.9e-05 0 83.4468 6.76549 8.99155 17.3 0 3e-06 21.4546 -1e-06 0.003093 0.103456 1.85782 -10.5485 -55.7302 -4.756 -178.802 43.5 -2.7e-05 4e-06 -77.0901 17.6826 -18.7838 42.3723 0 1e-05 86.2852 5.86909 -1.49388 17.3 -6e-06 1.7e-05 21.4546 -1.9e-05 -0.003116 6.90197 -2.60373 -3e-06 23.2894 -2.18238 -0.00651158 12.5881 1e-05 8e-06 36.6495 -3.80366 0.871639 12.3432 -1.8e-05 -5e-06 36.3831 -3.20089 1.03571 25.8329 2.3e-05 7e-06 1.0034 -1.31459 -7.78417 11.7666 -8e-06 -6e-06 -64.0557 -6.32755 6.45129 19.7459 -1.48035 6.0001 -162.46 18.5237 -111.89 11.2841 1.8e-05 -2e-05 75.8315 -40.9101 121.797 33 -1.3e-05 1.9e-05 -120.054 -15.8619 -7.11427 25.2 3.2e-05 1.1e-05 -25.7875 41.2355 -9.40287 19.7461 -1.48036 -6.00008 -163.754 -16.7576 102.075 11.2841 0 -1e-06 -17.0768 58.4062 -30.8417 33.0001 1.6e-05 -1e-06 -100.062 -19.9644 22.6298 25.1998 0.000123 0.000432 -30.2627 -32.6408 23.8532 
44.4475 70.4466 -5.02627 71.0443 -88.2884 -11.7995 0.103456 1.85784 10.5485 -41.6124 10.7707 -158.051 43.5 -4.2e-05 1e-05 -96.3687 -0.049585 -3.06113 42.3722 1.9e-05 1.77636e-15 84.644 0.0682706 13.606 17.3 4.44089e-16 3e-06 21.4546 -1e-06 0.003093 0.103456 1.85782 -10.5485 -55.6508 -3.34989 179.299 43.5 -2.7e-05 4e-06 -78.5662 16.9224 -17.2971 42.3723 0 1e-05 87.0565 6.97009 -2.6686 17.3 -6e-06 1.7e-05 21.4546 -1.9e-05 -0.003116 6.90197 -2.60373 -3e-06 23.2616 -2.25261 0.0167411 12.5881 1e-05 8e-06 36.599 -3.93094 0.945129 12.3432 -1.8e-05 -5e-06 36.3346 -3.32405 1.11739 25.8329 2.3e-05 7e-06 0.696634 -1.28173 -7.68208 11.7666 -8e-06 -6e-06 -64.4259 -6.73866 6.52114 19.7459 -1.48035 6.0001 -162.315 18.3285 -111.568 11.2841 1.8e-05 -2e-05 75.9406 -40.4494 122.118 33 -1.3e-05 1.9e-05 -120.066 -15.8753 -7.327 25.2 3.2e-05 1.1e-05 -25.8472 41.4424 -9.44055 19.7461 -1.48036 -6.00008 -163.803 -16.5724 102.236 11.2841 -2.84217e-14 -1e-06 -16.7476 58.5959 -31.1932 33.0001 1.6e-05 -1e-06 -100.181 -19.5275 22.6598 25.1998 0.000123 0.000432 -30.2481 -33.3519 24.3312 
42.9362 70.6267 -6.40336 92.1487 -87.2076 9.32297 0.103456 1.85784 10.5485 -44.9679 8.67061 -156.248 43.5 -4.2e-05 1e-05 -89.6529 -1.52451 -1.18401 42.3722 1.9e-05 1.77636e-15 84.2911 -1.46608 13.0615 17.3 0 3e-06 21.4546 -1e-06 0.003093 0.103456 1.85782 -10.5485 -55.5662 -1.96566 177.364 43.5 -2.7e-05 4e-06 -79.9895 16.0874 -15.7963 42.3723 0 1e-05 87.8429 8.01352 -3.87486 17.3 -6e-06 1.7e-05 21.4546 -1.9e-05 -0.003116 6.90197 -2.60373 -3e-06 23.2137 -2.31154 -0.00829346 12.5881 1e-05 8e-06 36.5062 -4.057 0.919786 12.3432 -1.8e-05 -5e-06 36.2442 -3.4527 1.10063 25.8329 2.3e-05 7e-06 0.438952 -1.15533 -7.64998 11.7666 -8e-06 -6e-06 -64.6581 -6.98811 6.62693 19.7459 -1.48035 6.0001 -162.154 18.1564 -111.217 11.2841 1.8e-05 -2e-05 76.268 -39.8004 122.415 33 -1.3e-05 1.9e-05 -119.829 -15.9092 -7.5095 25.2 3.2e-05 1.1e-05 -26.1256 41.6029 -9.42764 19.7461 -1.48036 -6.00008 -163.9 -16.404 102.381 11.2841 1.42109e-14 -1e-06 -16.1509 58.797 -31.962 33.0001 1.6e-05 -1e-06 -100.35 -19.344 22.666 25.1998 0.000123 0.000432 -30.2962 -32.8934 23.9979 
41.2736 70.7764 -7.69432 103.381 -86.097 20.4581 0.103456 1.85784 10.5485 -47.2724 6.64831 -155.043 43.5 -4.2e-05 1e-05 -81.5711 -3.82308 1.01926 42.3722 1.9e-05 1.77636e-15 83.3584 -1.36662 9.8407 17.3 0 3e-06 21.4546 -1e-06 0.003093 0.103456 1.85782 -10.5485 -55.4355 -0.576573 175.619 43.5 -2.7e-05 4e-06 -81.0852 15.2557 -14.4586 42.3723 3.55271e-15 1e-05 88.5927 9.11424 -5.0061 17.3 -6e-06 1.7e-05 21.4546 -1.9e-05 -0.003116 6.90197 -2.60373 -3e-06 23.1444 -2.34247 -0.0782939 12.5881 1e-05 8e-06 36.368 -4.14813 0.794933 12.3432 -1.8e-05 -5e-06 36.1083 -3.55324 0.982705 25.8329 2.3e-05 7e-06 0.12588 -1.10727 -7.5884 11.7666 -8e-06 -6e-06 -64.886 -7.33361 6.6388 19.7459 -1.48035 6.0001 -162.012 17.9702 -110.811 11.2841 1.8e-05 -2e-05 76.6545 -39.0485 122.704 33 -1.3e-05 1.9e-05 -119.542 -15.7447 -7.61342 25.2 3.2e-05 1.1e-05 -26.2432 41.7428 -9.41892 19.7461 -1.48036 -6.00008 -163.923 -16.2816 102.519 11.2841 1.42109e-14 -1e-06 -15.7426 58.8553 -32.4625 33.0001 1.6e-05 -1e-06 -100.642 -18.9859 22.6855 25.1998 0.000123 0.000432 -29.5784 -33.3488 24.4053 
39.4549 70.8701 -8.93891 109.434 -85.0035 26.299 0.103456 1.85784 10.5485 -48.7046 5.18585 -154.475 43.5 -4.2e-05 1e-05 -72.87 -6.93792 3.54549 42.3722 1.9e-05 8.88178e-16 83.4572 -1.44162 7.68269 17.3 0 3e-06 21.4546 -1e-06 0.003093 0.103456 1.85782 -10.5485 -55.1295 0.737153 174.013 43.5 -2.7e-05 4e-06 -81.9321 14.5476 -13.3239 42.3723 -3.55271e-15 1e-05 89.2687 10.1646 -6.15356 17.3 -6e-06 1.7e-05 21.4546 -1.9e-05 -0.003116 6.90197 -2.60373 -3e-06 23.0496 -2.35805 -0.162878 12.5881 1e-05 8e-06 36.1771 -4.21625 0.634434 12.3432 -1.8e-05 -5e-06 35.9194 -3.63375 0.828099 25.8329 2.3e-05 7e-06 -0.111324 -1.07395 -7.55469 11.7666 -8e-06 -6e-06 -65.052 -7.61847 6.6283 19.7459 -1.48035 6.0001 -161.881 17.8714 -110.291 11.2841 1.8e-05 -2e-05 76.8595 -38.3108 122.679 33 -1.3e-05 1.9e-05 -119.227 -15.6361 -7.72556 25.2 3.2e-05 1.1e-05 -26.1039 41.7304 -9.36547 19.7461 -1.48036 -6.00008 -164.062 -16.2228 102.56 11.2841 0 -1e-06 -15.7002 58.7683 -32.6033 33.0001 1.6e-05 -1e-06 -100.681 -18.9881 22.7014 25.1998 0.000123 0.000432 -29.2788 -34.0868 24.9042 
